<?xml version="1.0" standalone="no"?>
<!DOCTYPE svg PUBLIC "-//W3C//DTD SVG 20010904//EN"
 "http://www.w3.org/TR/2001/REC-SVG-20010904/DTD/svg10.dtd">
<svg version="1.0" xmlns="http://www.w3.org/2000/svg"
 width="500.000000pt" height="500.000000pt" viewBox="0 0 500.000000 500.000000"
 preserveAspectRatio="xMidYMid meet">
<metadata>
Created by potrace 1.11, written by Peter Selinger 2001-2013
</metadata>
<g transform="translate(0.000000,500.000000) scale(0.100000,-0.100000)"
fill="#000000" stroke="none">
<path d="M0 2500 l0 -2500 2500 0 2500 0 0 2500 0 2500 -2500 0 -2500 0 0
-2500z m1915 1599 c20 -20 10 -48 -22 -60 -13 -5 -55 -9 -93 -9 -59 0 -73 -4
-99 -26 -42 -35 -40 -59 18 -217 26 -72 52 -148 56 -167 4 -19 13 -39 20 -45
7 -5 30 -57 50 -115 21 -58 48 -126 61 -152 13 -26 24 -55 24 -65 0 -10 7 -36
15 -58 50 -140 111 -294 194 -493 28 -67 51 -125 51 -127 0 -3 -9 -5 -19 -5
-11 0 -21 -4 -23 -9 -1 -5 -16 -13 -32 -17 -23 -5 -27 -4 -21 6 6 10 4 12 -11
6 -22 -9 -22 -9 -53 -7 -13 0 -21 4 -18 8 11 10 -36 29 -60 25 -13 -2 -20 -9
-16 -15 4 -6 -4 -8 -23 -3 -16 3 -54 9 -86 12 -56 7 -56 7 -73 53 -48 130 -79
211 -101 259 -13 29 -24 56 -24 61 0 4 -15 41 -34 82 -19 41 -55 133 -81 204
-62 171 -186 479 -195 485 -12 8 -70 128 -70 145 0 22 -88 113 -130 135 -40
20 -171 50 -220 50 -17 0 -40 5 -51 10 -26 14 -24 49 2 59 12 4 253 7 535 7
453 -1 515 -3 529 -17z m2233 10 c26 -10 29 -44 5 -57 -10 -5 -45 -12 -77 -16
-130 -15 -218 -80 -283 -211 -54 -106 -186 -421 -228 -540 -16 -44 -34 -87
-40 -95 -7 -8 -16 -28 -19 -45 -7 -28 -34 -94 -91 -225 -13 -30 -43 -104 -66
-165 -23 -60 -48 -117 -56 -126 -7 -8 -13 -27 -13 -40 0 -14 -7 -35 -16 -48
-14 -20 -23 -23 -60 -18 -23 2 -47 0 -52 -5 -11 -11 -62 0 -62 13 0 5 -10 9
-22 9 -49 0 -50 11 -14 116 19 54 55 151 81 214 25 63 62 158 80 210 19 52 59
165 90 250 31 85 66 182 77 215 11 33 36 91 54 129 19 38 34 76 34 85 0 9 9
52 20 96 20 82 18 118 -8 147 -16 19 -37 23 -145 33 -53 5 -69 11 -78 27 -8
15 -7 24 6 38 16 18 40 19 438 18 232 -1 432 -5 445 -9z m-1978 -1676 l75 -8
38 -110 c21 -60 52 -139 67 -175 16 -36 42 -105 58 -155 16 -49 61 -166 99
-260 38 -93 73 -179 76 -189 6 -15 16 -2 47 62 22 45 40 86 40 91 0 6 40 106
89 223 49 117 102 251 119 298 72 202 69 198 119 220 48 21 88 27 78 11 -3 -6
22 -8 65 -4 49 4 70 2 70 -5 0 -7 -11 -35 -25 -64 -13 -29 -36 -84 -50 -123
-51 -138 -57 -151 -86 -210 -16 -33 -29 -68 -29 -77 0 -10 -21 -60 -46 -110
-25 -51 -71 -154 -101 -228 -30 -74 -66 -155 -80 -180 -13 -25 -34 -72 -45
-105 -12 -33 -40 -98 -63 -145 -23 -47 -57 -123 -76 -169 -19 -46 -47 -97 -62
-113 -62 -62 -104 -24 -172 155 -55 144 -138 355 -171 432 -42 99 -90 216
-115 280 -12 33 -43 107 -67 165 -24 58 -52 131 -62 162 -11 32 -24 67 -31 79
-12 24 -99 250 -99 259 0 8 247 3 340 -7z"/>
</g>
</svg>
